<svg width="904" height="921" viewBox="0 0 904 921" fill="none" xmlns="http://www.w3.org/2000/svg">
<rect x="135.934" y="222.237" width="25" height="7" rx="3.5" transform="rotate(142.565 135.934 222.237)" fill="#E6C83A"/>
<rect x="169.628" y="216.106" width="25" height="7" rx="3.5" transform="rotate(162.264 169.628 216.106)" fill="#D22F40"/>
<rect x="153.615" y="170.354" width="25" height="7" rx="3.5" transform="rotate(93.1836 153.615 170.354)" fill="#6C96DE"/>
<rect x="130.667" y="209.017" width="25" height="7" rx="3.5" transform="rotate(178.96 130.667 209.017)" fill="#82D7A8"/>
<rect x="100.682" y="226.168" width="25" height="7" rx="3.5" transform="rotate(93.1836 100.682 226.168)" fill="#DC6B3F"/>
<rect x="136.089" y="244.697" width="25" height="7" rx="3.5" transform="rotate(93.1836 136.089 244.697)" fill="#D7779C"/>
<rect x="85.2573" y="280.306" width="25" height="7" rx="3.5" transform="rotate(111.102 85.2573 280.306)" fill="#E6C83A"/>
<rect x="110.798" y="257.489" width="25" height="7" rx="3.5" transform="rotate(130.801 110.798 257.489)" fill="#D22F40"/>
<rect x="73.2582" y="226.823" width="25" height="7" rx="3.5" transform="rotate(61.7205 73.2582 226.823)" fill="#6C96DE"/>
<rect x="73.8639" y="271.779" width="25" height="7" rx="3.5" transform="rotate(147.497 73.8639 271.779)" fill="#82D7A8"/>
<rect x="57.2395" y="302.058" width="25" height="7" rx="3.5" transform="rotate(61.7205 57.2395 302.058)" fill="#DC6B3F"/>
<rect x="97.1123" y="299.383" width="25" height="7" rx="3.5" transform="rotate(61.7205 97.1123 299.383)" fill="#D7779C"/>
<rect x="55.2722" y="369.894" width="25" height="7" rx="3.5" transform="rotate(103.799 55.2722 369.894)" fill="#E6C83A"/>
<rect x="77.705" y="344.016" width="25" height="7" rx="3.5" transform="rotate(123.498 77.705 344.016)" fill="#D22F40"/>
<rect x="36.572" y="318.37" width="25" height="7" rx="3.5" transform="rotate(54.4176 36.572 318.37)" fill="#6C96DE"/>
<rect x="42.8874" y="362.884" width="25" height="7" rx="3.5" transform="rotate(140.194 42.8874 362.884)" fill="#82D7A8"/>
<rect x="30.2468" y="395.031" width="25" height="7" rx="3.5" transform="rotate(54.4176 30.2468 395.031)" fill="#DC6B3F"/>
<rect x="69.4561" y="387.309" width="25" height="7" rx="3.5" transform="rotate(54.4176 69.4561 387.309)" fill="#D7779C"/>
<rect x="42.5178" y="463.442" width="25" height="7" rx="3.5" transform="rotate(84.3637 42.5178 463.442)" fill="#E6C83A"/>
<rect x="55.0617" y="431.575" width="25" height="7" rx="3.5" transform="rotate(104.063 55.0617 431.575)" fill="#D22F40"/>
<rect x="7.73914" y="421.077" width="25" height="7" rx="3.5" transform="rotate(34.9825 7.73914 421.077)" fill="#6C96DE"/>
<rect x="28.5063" y="460.953" width="25" height="7" rx="3.5" transform="rotate(120.759 28.5063 460.953)" fill="#82D7A8"/>
<rect x="27.2827" y="495.475" width="25" height="7" rx="3.5" transform="rotate(34.9825 27.2827 495.475)" fill="#DC6B3F"/>
<rect x="61.6883" y="475.146" width="25" height="7" rx="3.5" transform="rotate(34.9825 61.6883 475.146)" fill="#D7779C"/>
<rect x="49.9886" y="558.317" width="25" height="7" rx="3.5" transform="rotate(-84.6825 49.9886 558.317)" fill="#E6C83A"/>
<rect x="31.6178" y="587.22" width="25" height="7" rx="3.5" transform="rotate(-64.9836 31.6178 587.22)" fill="#D22F40"/>
<rect x="76.0833" y="606.519" width="25" height="7" rx="3.5" transform="rotate(-134.064 76.0833 606.519)" fill="#6C96DE"/>
<rect x="63.2718" y="563.423" width="25" height="7" rx="3.5" transform="rotate(-48.287 63.2718 563.423)" fill="#82D7A8"/>
<rect x="71.0329" y="529.763" width="25" height="7" rx="3.5" transform="rotate(-134.064 71.0329 529.763)" fill="#DC6B3F"/>
<rect x="33.3913" y="543.184" width="25" height="7" rx="3.5" transform="rotate(-134.064 33.3913 543.184)" fill="#D7779C"/>
<rect x="88.0063" y="642.941" width="25" height="7" rx="3.5" transform="rotate(75.099 88.0063 642.941)" fill="#E6C83A"/>
<rect x="95.256" y="609.47" width="25" height="7" rx="3.5" transform="rotate(94.7978 95.256 609.47)" fill="#D22F40"/>
<rect x="46.8606" y="606.727" width="25" height="7" rx="3.5" transform="rotate(25.7178 46.8606 606.727)" fill="#6C96DE"/>
<rect x="73.7769" y="642.74" width="25" height="7" rx="3.5" transform="rotate(111.494 73.7769 642.74)" fill="#82D7A8"/>
<rect x="78.127" y="677.008" width="25" height="7" rx="3.5" transform="rotate(25.7178 78.127 677.008)" fill="#DC6B3F"/>
<rect x="108.811" y="651.406" width="25" height="7" rx="3.5" transform="rotate(25.7178 108.811 651.406)" fill="#D7779C"/>
<rect x="138.585" y="723.623" width="25" height="7" rx="3.5" transform="rotate(51.2376 138.585 723.623)" fill="#E6C83A"/>
<rect x="131.676" y="690.08" width="25" height="7" rx="3.5" transform="rotate(70.9364 131.676 690.08)" fill="#D22F40"/>
<rect x="86.3073" y="707.149" width="25" height="7" rx="3.5" transform="rotate(1.85643 86.3073 707.149)" fill="#6C96DE"/>
<rect x="125.491" y="729.195" width="25" height="7" rx="3.5" transform="rotate(87.6331 125.491 729.195)" fill="#82D7A8"/>
<rect x="143.332" y="758.775" width="25" height="7" rx="3.5" transform="rotate(1.85643 143.332 758.775)" fill="#DC6B3F"/>
<rect x="161.036" y="722.948" width="25" height="7" rx="3.5" transform="rotate(1.85643 161.036 722.948)" fill="#D7779C"/>
<rect x="215.618" y="797.354" width="25" height="7" rx="3.5" transform="rotate(-134.478 215.618 797.354)" fill="#E6C83A"/>
<rect x="225.834" y="830.042" width="25" height="7" rx="3.5" transform="rotate(-114.779 225.834 830.042)" fill="#D22F40"/>
<rect x="269.277" y="808.539" width="25" height="7" rx="3.5" transform="rotate(176.141 269.277 808.539)" fill="#6C96DE"/>
<rect x="228.092" y="790.505" width="25" height="7" rx="3.5" transform="rotate(-98.0823 228.092 790.505)" fill="#82D7A8"/>
<rect x="207.395" y="762.849" width="25" height="7" rx="3.5" transform="rotate(176.141 207.395 762.849)" fill="#DC6B3F"/>
<rect x="193.346" y="800.261" width="25" height="7" rx="3.5" transform="rotate(176.141 193.346 800.261)" fill="#D7779C"/>
<rect x="303.36" y="833.874" width="25" height="7" rx="3.5" transform="rotate(39.371 303.36 833.874)" fill="#E6C83A"/>
<rect x="289.7" y="802.469" width="25" height="7" rx="3.5" transform="rotate(59.0698 289.7 802.469)" fill="#D22F40"/>
<rect x="248.812" y="828.502" width="25" height="7" rx="3.5" transform="rotate(-10.0102 248.812 828.502)" fill="#6C96DE"/>
<rect x="291.691" y="842.02" width="25" height="7" rx="3.5" transform="rotate(75.7665 291.691 842.02)" fill="#82D7A8"/>
<rect x="315.233" y="867.299" width="25" height="7" rx="3.5" transform="rotate(-10.0102 315.233 867.299)" fill="#DC6B3F"/>
<rect x="325.192" y="828.597" width="25" height="7" rx="3.5" transform="rotate(-10.0102 325.192 828.597)" fill="#D7779C"/>
<rect x="390.236" y="855.838" width="25" height="7" rx="3.5" transform="rotate(41.3201 390.236 855.838)" fill="#E6C83A"/>
<rect x="377.652" y="823.986" width="25" height="7" rx="3.5" transform="rotate(61.0189 377.652 823.986)" fill="#D22F40"/>
<rect x="335.902" y="848.614" width="25" height="7" rx="3.5" transform="rotate(-8.06106 335.902 848.614)" fill="#6C96DE"/>
<rect x="378.297" y="863.583" width="25" height="7" rx="3.5" transform="rotate(77.7156 378.297 863.583)" fill="#82D7A8"/>
<rect x="400.966" y="889.647" width="25" height="7" rx="3.5" transform="rotate(-8.06106 400.966 889.647)" fill="#DC6B3F"/>
<rect x="412.235" y="851.307" width="25" height="7" rx="3.5" transform="rotate(-8.06106 412.235 851.307)" fill="#D7779C"/>
<rect x="485.907" y="854.717" width="25" height="7" rx="3.5" transform="rotate(1.48151 485.907 854.717)" fill="#E6C83A"/>
<rect x="455.839" y="838.321" width="25" height="7" rx="3.5" transform="rotate(21.1803 455.839 838.321)" fill="#D22F40"/>
<rect x="439.558" y="883.978" width="25" height="7" rx="3.5" transform="rotate(-47.8997 439.558 883.978)" fill="#6C96DE"/>
<rect x="481.701" y="868.312" width="25" height="7" rx="3.5" transform="rotate(37.877 481.701 868.312)" fill="#82D7A8"/>
<rect x="515.805" y="873.804" width="25" height="7" rx="3.5" transform="rotate(-47.8997 515.805 873.804)" fill="#DC6B3F"/>
<rect x="499.896" y="837.145" width="25" height="7" rx="3.5" transform="rotate(-47.8997 499.896 837.145)" fill="#D7779C"/>
<rect x="578.141" y="837.274" width="25" height="7" rx="3.5" transform="rotate(31.0455 578.141 837.274)" fill="#E6C83A"/>
<rect x="560.078" y="808.178" width="25" height="7" rx="3.5" transform="rotate(50.7443 560.078 808.178)" fill="#D22F40"/>
<rect x="523.39" y="839.857" width="25" height="7" rx="3.5" transform="rotate(-18.3356 523.39 839.857)" fill="#6C96DE"/>
<rect x="567.775" y="847.024" width="25" height="7" rx="3.5" transform="rotate(67.441 567.775 847.024)" fill="#82D7A8"/>
<rect x="594.729" y="868.627" width="25" height="7" rx="3.5" transform="rotate(-18.3356 594.729 868.627)" fill="#DC6B3F"/>
<rect x="598.979" y="828.892" width="25" height="7" rx="3.5" transform="rotate(-18.3356 598.979 828.892)" fill="#D7779C"/>
<rect x="648.745" y="814.223" width="25" height="7" rx="3.5" transform="rotate(172.242 648.745 814.223)" fill="#E6C83A"/>
<rect x="681.055" y="825.578" width="25" height="7" rx="3.5" transform="rotate(-168.059 681.055 825.578)" fill="#D22F40"/>
<rect x="689.794" y="777.9" width="25" height="7" rx="3.5" transform="rotate(122.861 689.794 777.9)" fill="#6C96DE"/>
<rect x="650.714" y="800.129" width="25" height="7" rx="3.5" transform="rotate(-151.362 650.714 800.129)" fill="#82D7A8"/>
<rect x="616.171" y="800.184" width="25" height="7" rx="3.5" transform="rotate(122.861 616.171 800.184)" fill="#DC6B3F"/>
<rect x="637.759" y="833.813" width="25" height="7" rx="3.5" transform="rotate(122.861 637.759 833.813)" fill="#D7779C"/>
<rect x="720.741" y="761.366" width="25" height="7" rx="3.5" transform="rotate(169.164 720.741 761.366)" fill="#E6C83A"/>
<rect x="753.615" y="770.97" width="25" height="7" rx="3.5" transform="rotate(-171.137 753.615 770.97)" fill="#D22F40"/>
<rect x="759.781" y="722.89" width="25" height="7" rx="3.5" transform="rotate(119.783 759.781 722.89)" fill="#6C96DE"/>
<rect x="721.95" y="747.186" width="25" height="7" rx="3.5" transform="rotate(-154.441 721.95 747.186)" fill="#82D7A8"/>
<rect x="687.46" y="749.096" width="25" height="7" rx="3.5" transform="rotate(119.783 687.46 749.096)" fill="#DC6B3F"/>
<rect x="710.823" y="781.518" width="25" height="7" rx="3.5" transform="rotate(119.783 710.823 781.518)" fill="#D7779C"/>
<rect x="769.855" y="694.593" width="25" height="7" rx="3.5" transform="rotate(-0.298334 769.855 694.593)" fill="#E6C83A"/>
<rect x="739.293" y="679.139" width="25" height="7" rx="3.5" transform="rotate(19.4005 739.293 679.139)" fill="#D22F40"/>
<rect x="724.438" y="725.279" width="25" height="7" rx="3.5" transform="rotate(-49.6795 724.438 725.279)" fill="#6C96DE"/>
<rect x="766.074" y="708.312" width="25" height="7" rx="3.5" transform="rotate(36.0972 766.074 708.312)" fill="#82D7A8"/>
<rect x="800.331" y="712.742" width="25" height="7" rx="3.5" transform="rotate(-49.6795 800.331 712.742)" fill="#DC6B3F"/>
<rect x="783.292" y="676.594" width="25" height="7" rx="3.5" transform="rotate(-49.6795 783.292 676.594)" fill="#D7779C"/>
<rect x="819.168" y="626.203" width="25" height="7" rx="3.5" transform="rotate(131.716 819.168 626.203)" fill="#E6C83A"/>
<rect x="851.106" y="613.84" width="25" height="7" rx="3.5" transform="rotate(151.415 851.106 613.84)" fill="#D22F40"/>
<rect x="826.768" y="571.92" width="25" height="7" rx="3.5" transform="rotate(82.3349 826.768 571.92)" fill="#6C96DE"/>
<rect x="811.507" y="614.211" width="25" height="7" rx="3.5" transform="rotate(168.112 811.507 614.211)" fill="#82D7A8"/>
<rect x="785.286" y="636.699" width="25" height="7" rx="3.5" transform="rotate(82.3349 785.286 636.699)" fill="#DC6B3F"/>
<rect x="823.548" y="648.233" width="25" height="7" rx="3.5" transform="rotate(82.3349 823.548 648.233)" fill="#D7779C"/>
<rect x="843.168" y="543.203" width="25" height="7" rx="3.5" transform="rotate(131.716 843.168 543.203)" fill="#E6C83A"/>
<rect x="875.106" y="530.84" width="25" height="7" rx="3.5" transform="rotate(151.415 875.106 530.84)" fill="#D22F40"/>
<rect x="850.768" y="488.92" width="25" height="7" rx="3.5" transform="rotate(82.3349 850.768 488.92)" fill="#6C96DE"/>
<rect x="835.507" y="531.211" width="25" height="7" rx="3.5" transform="rotate(168.112 835.507 531.211)" fill="#82D7A8"/>
<rect x="809.286" y="553.699" width="25" height="7" rx="3.5" transform="rotate(82.3349 809.286 553.699)" fill="#DC6B3F"/>
<rect x="847.548" y="565.233" width="25" height="7" rx="3.5" transform="rotate(82.3349 847.548 565.233)" fill="#D7779C"/>
<rect x="850.037" y="454.001" width="25" height="7" rx="3.5" transform="rotate(106.827 850.037 454.001)" fill="#E6C83A"/>
<rect x="873.806" y="429.344" width="25" height="7" rx="3.5" transform="rotate(126.526 873.806 429.344)" fill="#D22F40"/>
<rect x="834.085" y="401.561" width="25" height="7" rx="3.5" transform="rotate(57.4463 834.085 401.561)" fill="#6C96DE"/>
<rect x="838.04" y="446.347" width="25" height="7" rx="3.5" transform="rotate(143.223 838.04 446.347)" fill="#82D7A8"/>
<rect x="823.718" y="477.781" width="25" height="7" rx="3.5" transform="rotate(57.4463 823.718 477.781)" fill="#DC6B3F"/>
<rect x="863.281" y="472.141" width="25" height="7" rx="3.5" transform="rotate(57.4463 863.281 472.141)" fill="#D7779C"/>
<rect x="840.503" y="367.443" width="25" height="7" rx="3.5" transform="rotate(111.62 840.503 367.443)" fill="#E6C83A"/>
<rect x="866.249" y="344.859" width="25" height="7" rx="3.5" transform="rotate(131.318 866.249 344.859)" fill="#D22F40"/>
<rect x="828.988" y="313.854" width="25" height="7" rx="3.5" transform="rotate(62.2385 828.988 313.854)" fill="#6C96DE"/>
<rect x="829.187" y="358.814" width="25" height="7" rx="3.5" transform="rotate(148.015 829.187 358.814)" fill="#82D7A8"/>
<rect x="812.29" y="388.942" width="25" height="7" rx="3.5" transform="rotate(62.2385 812.29 388.942)" fill="#DC6B3F"/>
<rect x="852.185" y="386.627" width="25" height="7" rx="3.5" transform="rotate(62.2385 852.185 386.627)" fill="#D7779C"/>
<rect x="808.575" y="289.896" width="25" height="7" rx="3.5" transform="rotate(-115.22 808.575 289.896)" fill="#E6C83A"/>
<rect x="807.438" y="324.124" width="25" height="7" rx="3.5" transform="rotate(-95.5208 807.438 324.124)" fill="#D22F40"/>
<rect x="855.542" y="318.154" width="25" height="7" rx="3.5" transform="rotate(-164.601 855.542 318.154)" fill="#6C96DE"/>
<rect x="822.611" y="287.544" width="25" height="7" rx="3.5" transform="rotate(-78.8241 822.611 287.544)" fill="#82D7A8"/>
<rect x="812.193" y="254.61" width="25" height="7" rx="3.5" transform="rotate(-164.601 812.193 254.61)" fill="#DC6B3F"/>
<rect x="786.591" y="285.294" width="25" height="7" rx="3.5" transform="rotate(-164.601 786.591 285.294)" fill="#D7779C"/>
<rect x="761.843" y="215.496" width="25" height="7" rx="3.5" transform="rotate(-124.642 761.843 215.496)" fill="#E6C83A"/>
<rect x="766.325" y="249.449" width="25" height="7" rx="3.5" transform="rotate(-104.943 766.325 249.449)" fill="#D22F40"/>
<rect x="812.802" y="235.684" width="25" height="7" rx="3.5" transform="rotate(-174.023 812.802 235.684)" fill="#6C96DE"/>
<rect x="775.304" y="210.879" width="25" height="7" rx="3.5" transform="rotate(-88.2466 775.304 210.879)" fill="#82D7A8"/>
<rect x="759.635" y="180.094" width="25" height="7" rx="3.5" transform="rotate(-174.023 759.635 180.094)" fill="#DC6B3F"/>
<rect x="739.402" y="214.556" width="25" height="7" rx="3.5" transform="rotate(-174.023 739.402 214.556)" fill="#D7779C"/>
<rect x="698.29" y="140.376" width="25" height="7" rx="3.5" transform="rotate(52.3653 698.29 140.376)" fill="#E6C83A"/>
<rect x="692.042" y="106.704" width="25" height="7" rx="3.5" transform="rotate(72.0641 692.042 106.704)" fill="#D22F40"/>
<rect x="646.346" y="122.877" width="25" height="7" rx="3.5" transform="rotate(2.98409 646.346 122.877)" fill="#6C96DE"/>
<rect x="685.089" y="145.69" width="25" height="7" rx="3.5" transform="rotate(88.7608 685.089 145.69)" fill="#82D7A8"/>
<rect x="702.344" y="175.615" width="25" height="7" rx="3.5" transform="rotate(2.98409 702.344 175.615)" fill="#DC6B3F"/>
<rect x="720.75" y="140.143" width="25" height="7" rx="3.5" transform="rotate(2.98409 720.75 140.143)" fill="#D7779C"/>
<rect x="620.393" y="90.0673" width="25" height="7" rx="3.5" transform="rotate(67.3701 620.393 90.0673)" fill="#E6C83A"/>
<rect x="623.075" y="55.925" width="25" height="7" rx="3.5" transform="rotate(87.0689 623.075 55.925)" fill="#D22F40"/>
<rect x="574.75" y="59.716" width="25" height="7" rx="3.5" transform="rotate(17.9889 574.75 59.716)" fill="#6C96DE"/>
<rect x="606.265" y="91.7819" width="25" height="7" rx="3.5" transform="rotate(103.766 606.265 91.7819)" fill="#82D7A8"/>
<rect x="615.185" y="125.154" width="25" height="7" rx="3.5" transform="rotate(17.9889 615.185 125.154)" fill="#DC6B3F"/>
<rect x="642.147" y="95.657" width="25" height="7" rx="3.5" transform="rotate(17.9889 642.147 95.657)" fill="#D7779C"/>
<rect x="537.127" y="73.2075" width="25" height="7" rx="3.5" transform="rotate(-116.091 537.127 73.2075)" fill="#E6C83A"/>
<rect x="536.511" y="107.449" width="25" height="7" rx="3.5" transform="rotate(-96.3925 536.511 107.449)" fill="#D22F40"/>
<rect x="584.518" y="100.748" width="25" height="7" rx="3.5" transform="rotate(-165.473 584.518 100.748)" fill="#6C96DE"/>
<rect x="551.125" y="70.643" width="25" height="7" rx="3.5" transform="rotate(-79.6959 551.125 70.643)" fill="#82D7A8"/>
<rect x="540.207" y="37.8707" width="25" height="7" rx="3.5" transform="rotate(-165.473 540.207 37.8707)" fill="#DC6B3F"/>
<rect x="515.075" y="68.9413" width="25" height="7" rx="3.5" transform="rotate(-165.473 515.075 68.9413)" fill="#D7779C"/>
<rect x="462.127" y="62.2075" width="25" height="7" rx="3.5" transform="rotate(-116.091 462.127 62.2075)" fill="#E6C83A"/>
<rect x="461.511" y="96.4494" width="25" height="7" rx="3.5" transform="rotate(-96.3925 461.511 96.4494)" fill="#D22F40"/>
<rect x="509.518" y="89.7477" width="25" height="7" rx="3.5" transform="rotate(-165.473 509.518 89.7477)" fill="#6C96DE"/>
<rect x="476.125" y="59.643" width="25" height="7" rx="3.5" transform="rotate(-79.6959 476.125 59.643)" fill="#82D7A8"/>
<rect x="465.207" y="26.8707" width="25" height="7" rx="3.5" transform="rotate(-165.473 465.207 26.8707)" fill="#DC6B3F"/>
<rect x="440.075" y="57.9413" width="25" height="7" rx="3.5" transform="rotate(-165.473 440.075 57.9413)" fill="#D7779C"/>
<rect x="372.695" y="58.6394" width="25" height="7" rx="3.5" transform="rotate(4.70397 372.695 58.6394)" fill="#E6C83A"/>
<rect x="343.597" y="40.5792" width="25" height="7" rx="3.5" transform="rotate(24.4028 343.597 40.5792)" fill="#D22F40"/>
<rect x="324.775" y="85.2489" width="25" height="7" rx="3.5" transform="rotate(-44.6772 324.775 85.2489)" fill="#6C96DE"/>
<rect x="367.732" y="71.9765" width="25" height="7" rx="3.5" transform="rotate(41.0995 367.732 71.9765)" fill="#82D7A8"/>
<rect x="401.473" y="79.3767" width="25" height="7" rx="3.5" transform="rotate(-44.6772 401.473 79.3767)" fill="#DC6B3F"/>
<rect x="387.65" y="41.881" width="25" height="7" rx="3.5" transform="rotate(-44.6772 387.65 41.881)" fill="#D7779C"/>
<rect x="286.228" y="82.6091" width="25" height="7" rx="3.5" transform="rotate(14.6732 286.228 82.6091)" fill="#E6C83A"/>
<rect x="260.696" y="59.784" width="25" height="7" rx="3.5" transform="rotate(34.3721 260.696 59.784)" fill="#D22F40"/>
<rect x="234.425" y="100.521" width="25" height="7" rx="3.5" transform="rotate(-34.7079 234.425 100.521)" fill="#6C96DE"/>
<rect x="279.031" y="94.8855" width="25" height="7" rx="3.5" transform="rotate(51.0687 279.031 94.8855)" fill="#82D7A8"/>
<rect x="310.981" y="108.015" width="25" height="7" rx="3.5" transform="rotate(-34.7079 310.981 108.015)" fill="#DC6B3F"/>
<rect x="303.858" y="68.6926" width="25" height="7" rx="3.5" transform="rotate(-34.7079 303.858 68.6926)" fill="#D7779C"/>
<rect x="214.574" y="118.748" width="25" height="7" rx="3.5" transform="rotate(-19.6346 214.574 118.748)" fill="#E6C83A"/>
<rect x="180.619" y="114.285" width="25" height="7" rx="3.5" transform="rotate(0.0641711 180.619 114.285)" fill="#D22F40"/>
<rect x="181.88" y="162.742" width="25" height="7" rx="3.5" transform="rotate(-69.0158 181.88 162.742)" fill="#6C96DE"/>
<rect x="215.548" y="132.946" width="25" height="7" rx="3.5" transform="rotate(16.7609 215.548 132.946)" fill="#82D7A8"/>
<rect x="249.341" y="125.782" width="25" height="7" rx="3.5" transform="rotate(-69.0158 249.341 125.782)" fill="#DC6B3F"/>
<rect x="221.293" y="97.316" width="25" height="7" rx="3.5" transform="rotate(-69.0158 221.293 97.316)" fill="#D7779C"/>
<rect x="180.061" y="152.881" width="25" height="7" rx="3.5" transform="rotate(154.321 180.061 152.881)" fill="#E6C83A"/>
<rect x="177.597" y="138.865" width="25" height="7" rx="3.5" transform="rotate(-169.284 177.597 138.865)" fill="#82D7A8"/>
<rect x="144.747" y="149.547" width="25" height="7" rx="3.5" transform="rotate(104.94 144.747 149.547)" fill="#DC6B3F"/>
<rect x="175.636" y="174.902" width="25" height="7" rx="3.5" transform="rotate(104.94 175.636 174.902)" fill="#D7779C"/>
</svg>
