<svg width="120" height="24" viewBox="0 0 120 24" fill="none" xmlns="http://www.w3.org/2000/svg">
<path d="M8.728 23.224C7.23467 23.224 5.89067 22.968 4.696 22.456C3.50133 21.9227 2.56267 21.176 1.88 20.216C1.19733 19.256 0.856 18.136 0.856 16.856H4.76C4.84533 17.816 5.21867 18.6053 5.88 19.224C6.56267 19.8427 7.512 20.152 8.728 20.152C9.98667 20.152 10.968 19.8533 11.672 19.256C12.376 18.6373 12.728 17.848 12.728 16.888C12.728 16.1413 12.504 15.5333 12.056 15.064C11.6293 14.5947 11.0853 14.232 10.424 13.976C9.784 13.72 8.888 13.4427 7.736 13.144C6.28533 12.76 5.10133 12.376 4.184 11.992C3.288 11.5867 2.52 10.968 1.88 10.136C1.24 9.304 0.92 8.19467 0.92 6.808C0.92 5.528 1.24 4.408 1.88 3.448C2.52 2.488 3.416 1.752 4.568 1.24C5.72 0.727999 7.05333 0.471998 8.568 0.471998C10.7227 0.471998 12.4827 1.016 13.848 2.104C15.2347 3.17067 16.0027 4.64267 16.152 6.52H12.12C12.056 5.70933 11.672 5.016 10.968 4.44C10.264 3.864 9.336 3.576 8.184 3.576C7.13867 3.576 6.28533 3.84267 5.624 4.376C4.96267 4.90933 4.632 5.67733 4.632 6.68C4.632 7.36267 4.83467 7.928 5.24 8.376C5.66667 8.80267 6.2 9.144 6.84 9.4C7.48 9.656 8.35467 9.93333 9.464 10.232C10.936 10.6373 12.1307 11.0427 13.048 11.448C13.9867 11.8533 14.776 12.4827 15.416 13.336C16.0773 14.168 16.408 15.288 16.408 16.696C16.408 17.8267 16.0987 18.8933 15.48 19.896C14.8827 20.8987 13.9973 21.7093 12.824 22.328C11.672 22.9253 10.3067 23.224 8.728 23.224ZM49.6725 0.759998L43.0805 23H38.9525L34.2805 6.168L29.3205 23L25.2245 23.032L18.9205 0.759998H22.7925L27.4005 18.872L32.3925 0.759998H36.4885L41.1285 18.776L45.7685 0.759998H49.6725ZM56.3293 3.704V10.232H64.0093V13.208H56.3293V20.024H64.9693V23H52.6813V0.727999H64.9693V3.704H56.3293ZM73.1105 3.704V10.232H80.7905V13.208H73.1105V20.024H81.7505V23H69.4625V0.727999H81.7505V3.704H73.1105ZM100.612 0.759998V3.736H94.6918V23H91.0438V3.736H85.0918V0.759998H100.612ZM111.634 23.224C110.141 23.224 108.797 22.968 107.602 22.456C106.408 21.9227 105.469 21.176 104.786 20.216C104.104 19.256 103.762 18.136 103.762 16.856H107.666C107.752 17.816 108.125 18.6053 108.786 19.224C109.469 19.8427 110.418 20.152 111.634 20.152C112.893 20.152 113.874 19.8533 114.578 19.256C115.282 18.6373 115.634 17.848 115.634 16.888C115.634 16.1413 115.41 15.5333 114.962 15.064C114.536 14.5947 113.992 14.232 113.33 13.976C112.69 13.72 111.794 13.4427 110.642 13.144C109.192 12.76 108.008 12.376 107.09 11.992C106.194 11.5867 105.426 10.968 104.786 10.136C104.146 9.304 103.826 8.19467 103.826 6.808C103.826 5.528 104.146 4.408 104.786 3.448C105.426 2.488 106.322 1.752 107.474 1.24C108.626 0.727999 109.96 0.471998 111.474 0.471998C113.629 0.471998 115.389 1.016 116.754 2.104C118.141 3.17067 118.909 4.64267 119.058 6.52H115.026C114.962 5.70933 114.578 5.016 113.874 4.44C113.17 3.864 112.242 3.576 111.09 3.576C110.045 3.576 109.192 3.84267 108.53 4.376C107.869 4.90933 107.538 5.67733 107.538 6.68C107.538 7.36267 107.741 7.928 108.146 8.376C108.573 8.80267 109.106 9.144 109.746 9.4C110.386 9.656 111.261 9.93333 112.37 10.232C113.842 10.6373 115.037 11.0427 115.954 11.448C116.893 11.8533 117.682 12.4827 118.322 13.336C118.984 14.168 119.314 15.288 119.314 16.696C119.314 17.8267 119.005 18.8933 118.386 19.896C117.789 20.8987 116.904 21.7093 115.73 22.328C114.578 22.9253 113.213 23.224 111.634 23.224Z" fill="#13304E"/>
</svg>
